<svg xmlns="http://www.w3.org/2000/svg" viewBox="0 0 96 31.84"><defs><style>.cls-1{fill:#97a2ac;}</style></defs><path class="cls-1" d="M0,13.51a1.75,1.75,0,0,0,.31-.2q1-1,2-2a.46.46,0,0,1,.36-.17H7.4l.2,0v2.55H2.51V16.2H6.25a11.71,11.71,0,0,1,0,2.62H2.49c0,.86,0,1.69,0,2.52s0,1.64,0,2.5c-.85,0-1.66,0-2.48,0Z"/><path class="cls-1" d="M30.83,16.34l.25.27,2,2a.57.57,0,0,1,.22.43c0,1.54,0,3.08,0,4.62a1.57,1.57,0,0,1,0,.19c-.84,0-1.68,0-2.57,0v-5H28.13c0,.4,0,.81,0,1.21s0,.85,0,1.27v2.48H25.55V11.13l.33,0h4.54a.65.65,0,0,1,.51.21q1.06,1.08,2.15,2.15a.64.64,0,0,1,.21.51c0,.65,0,1.31,0,2,0,.1,0,.2,0,.33H30.86Zm-2.68-.14h2.53c0-.84,0-1.66,0-2.48H28.14Z"/><path class="cls-1" d="M96,23.83H93.5V18.91a11.7,11.7,0,0,0-2.54,0v4.94c-.87,0-1.71,0-2.54,0-.09-.29-.11-12.22,0-12.71h2.55v5.06h2.54c0-1.67,0-3.34,0-5a12.16,12.16,0,0,1,2.51,0Z"/><path class="cls-1" d="M14.81,23.83H12.24c0-.12,0-.24,0-.35q0-4.75,0-9.5a.69.69,0,0,1,.22-.54c.71-.7,1.42-1.41,2.12-2.12A.56.56,0,0,1,15,11.1h2.19l.22,0v2.46l.41,0h1.69l.43,0V23.82H17.34v-5H14.83c-.05.82,0,1.65,0,2.47S14.81,23,14.81,23.83Zm2.51-10.08a11.08,11.08,0,0,0-2.51,0c0,.8,0,1.61,0,2.42a14,14,0,0,0,2.5,0Z"/><path class="cls-1" d="M53.42,18.82v2.53h5.09v2.47l-.38,0H53.59a.72.72,0,0,1-.58-.23c-.67-.69-1.35-1.37-2-2a.6.6,0,0,1-.2-.47q0-3.58,0-7.15a.6.6,0,0,1,.19-.47c.74-.73,1.47-1.46,2.2-2.2a.53.53,0,0,1,.4-.18h4.73l.21,0v2.53a11.66,11.66,0,0,1-1.25,0H53.43v2.52c1.25,0,2.51,0,3.8,0v2.6Z"/><path class="cls-1" d="M46.49,11.17v2.47h-5v2.57h3.81v2.61H41.44v5c-.88,0-1.73,0-2.63,0v-.41q0-4.69,0-9.38a.65.65,0,0,1,.23-.52c.74-.71,1.46-1.44,2.18-2.17a.61.61,0,0,1,.46-.21h4.58Z"/><path class="cls-1" d="M71.36,11.15v2.51a11,11,0,0,1-1.26,0H68.8V23.82H66.2V13.7H63.66V11.18C63.92,11.09,70.81,11.06,71.36,11.15Z"/><path class="cls-1" d="M83.79,11.13v2.54c-.57,0-1.13,0-1.68,0H78.67c0,.66,0,1.3,0,1.93s0,1.28,0,1.92v3.79a8,8,0,0,1-2.59,0v-.4c0-2.3,0-4.59,0-6.89a.85.85,0,0,1,.28-.67c.7-.68,1.38-1.37,2.07-2.06a.61.61,0,0,1,.46-.22h4.65Z"/><path class="cls-1" d="M83.79,23.82V21.36c-.57,0-1.13,0-1.68,0H78.67c0-.64,0-1.26,0-1.87s0-1.24,0-1.86V13.93a8.29,8.29,0,0,0-2.59,0v.39c0,2.22,0,4.45,0,6.67a.81.81,0,0,0,.28.65c.7.66,1.38,1.33,2.07,2a.61.61,0,0,0,.46.21h4.65Z"/><polygon class="cls-1" points="17.39 11.15 19.92 13.66 17.31 13.75 17.39 11.15"/></svg>