<svg xmlns="http://www.w3.org/2000/svg" viewBox="0 0 96 31.84"><defs><style>.cls-1{fill:#97a2ac;}</style></defs><path class="cls-1" d="M0,22.82c.11-.8.2-1.54.31-2.28q.43-3.06.86-6.11c.1-.68.17-1.36.29-2a3.1,3.1,0,0,0-.12-1.9,6.47,6.47,0,0,1-.23-.71h4l-.78,5.61a1.42,1.42,0,0,0,.25,0H9.46c.3,0,.43,0,.47-.41.22-1.75.48-3.49.73-5.25h3.25l-1.82,13H8.85l.84-6.12H4.1c-.14,1-.28,1.93-.41,2.9s-.27,2-.42,3c0,.09-.12.23-.19.24C2.07,22.83,1.06,22.82,0,22.82Z"/><path class="cls-1" d="M35.06,9.78l4.26,13.06h-1c-.67,0-1.35,0-2,0a.37.37,0,0,1-.42-.31c-.31-1-.65-2-1-3-.07-.22-.16-.32-.41-.31-1.48,0-3,0-4.45,0a.52.52,0,0,0-.51.29c-.61,1-1.25,2-1.87,3a.52.52,0,0,1-.51.3c-.6,0-1.21,0-1.9,0l1.23-2q2.85-4.57,5.69-9.15a.61.61,0,0,0,0-.44c-.14-.49-.31-1-.48-1.48ZM34.43,18l-1.35-4.14L30.52,18Z"/><path class="cls-1" d="M59.84,15.86c-.38,0-.76,0-1.15,0a.6.6,0,0,1-.44-.25c-.3-.69-.55-1.41-.83-2.15h2.17l.42.95h.12l.28-2.07a1.88,1.88,0,0,0-.5-.05c-.66.12-.93-.22-1.09-.81a16.07,16.07,0,0,0-.65-1.64,13.69,13.69,0,0,0,1.56,0,.76.76,0,0,1,.91.62,9.9,9.9,0,0,1,.41,1.08c.11.55.34.87,1,.72L61,19.75l.1.08,1.33-1.07-.79-.08.56-4c.53-.31,1.28.23,1.75-.32l0-.2H62.39c0-.09,0-.1,0-.12.11-1,.11-1,1.16-1h.05l.65-.27a2,2,0,0,0-.64-.24c-1.12,0-1.11,0-1.51-1.07-.19-.53-.4-1-.61-1.61.64,0,1.24,0,1.84,0a.6.6,0,0,1,.4.36.79.79,0,0,0,.9.58c1.49,0,3,0,4.46,0h.58l-.38,2.72q-.46,3.28-.93,6.55c-.09.63-.19,1.25-.32,1.88a1.13,1.13,0,0,1-1.08.94c-.56.05-1.13,0-1.78,0l.17-1.4.45-.08L64.5,20.13,64.2,22c-.12.78-.12.78-.92.8h-.5L63.16,20c-.81.53-1.27,1.45-2.36,1.41,0,.33-.1.65-.13,1s-.14.44-.47.41-.81,0-1.27,0l.58-4.08-.09,0c-.27.68-.53,1.35-.81,2s-.49,1.13-.73,1.7a.57.57,0,0,1-.65.38c-.58,0-1.15,0-1.72,0,.48-1.12,1-2.21,1.42-3.32.3-.75.56-1.52.81-2.28.1-.29.22-.45.55-.41a6.28,6.28,0,0,0,.74,0C59.9,16.83,59.9,16.83,59.84,15.86Zm6.86,3.89,1-7.24c-.69,0-1.32,0-2,0-.11,0-.21.21-.31.33l.09.15h1.63L67,14.13H66c-.62,0-.62,0-.66.47H67c-.17,1.16-.38,2.25-.48,3.36-.05.58-.26.84-.87.77l-.07.14Zm-3.15-3.16h.11l.1-.89c-1-.15-1-.13-1.08.36l.65,0Zm2.73-.89c-1.17-.18-1.32-.06-1.21.95.22-.36.43-.68.9-.6C66,16.07,66.14,15.87,66.28,15.7ZM62.4,17.63h.68l-.4-1.06h-.11Zm3.69-1.06L66,16.51l-.73,1.12h.66Z"/><path class="cls-1" d="M50,22.8l.22-1.57c.68-.19,1.44.2,2-.27l0-.2H45.81l.89-3.14c-.43-.19-.61,0-.76.35-.57,1.48-1.17,2.94-1.76,4.41a.61.61,0,0,1-.71.45c-.56,0-1.12,0-1.64,0l2.42-6h.82c.72,0,.83-.12.83-1-.33,0-.66,0-1,0-.13,0-.33-.08-.37-.18-.3-.73-.57-1.47-.87-2.24a11.5,11.5,0,0,1,1.5,0,1.12,1.12,0,0,0,1.26-.7l.23-.42a3.92,3.92,0,0,0-.43-.06c-.86,0-.85,0-1.15-.83-.19-.53-.42-1-.65-1.61.69,0,1.34,0,2,0a.48.48,0,0,1,.32.25c.18.36.31.74.52,1.25L48,9.82h2.1l-.24.88h6.26l-.25,1.77H49.56c-.29,0-.66-.09-.77.44h6.45l-.41,2.91.56.1-.25,1.56c-.61.1-.8.52-.7,1.6l.47.06-.22,1.58c-.5-.07-.64.26-.73.69a1.58,1.58,0,0,1-1.63,1.38C51.57,22.82,50.79,22.8,50,22.8ZM46,13.75c.26.7.49,1.36.76,2a.61.61,0,0,0,.42,0c.21-.64.38-1.29.57-2Zm4,5.38a17.21,17.21,0,0,0-1-1.46.68.68,0,0,0-.59,0,13,13,0,0,0-.41,1.43Zm2.61-1.54H51.06c.29.48.52.91.8,1.31a.58.58,0,0,0,.45.14c.08,0,.19-.18.21-.29C52.59,18.37,52.62,18,52.67,17.58Zm.26-1.72.16-1.32H51.68l-.08.12C52.12,15,52,15.86,52.93,15.86Zm-3.91,0h1.46c-.26-.43-.45-.8-.69-1.13s-.38-.25-.48.08S49.12,15.44,49,15.82Z"/><path class="cls-1" d="M18.27,21.63h6.66c-.25.39-.44.73-.68,1.05a.47.47,0,0,1-.34.14H15a.72.72,0,0,1-.15,0c.14-1,.27-2,.41-3,.34-2.48.65-5,1-7.43a3.84,3.84,0,0,0-.23-2.11C16,10.09,16,9.95,16,9.78h4Z"/><path class="cls-1" d="M94.47,14.5c-.09.58-.19,1.16-.25,1.73a.78.78,0,0,1-.53.69c-1.21.56-1.26.59-.67,1.81a11.11,11.11,0,0,0,1.25,1.67c.09.11.2.26.19.38-.06.59-.16,1.18-.26,1.83a5.48,5.48,0,0,1-2.44-2.42c-.28-.54-.45-1.14-.7-1.71-.05-.13-.21-.21-.31-.31a1.17,1.17,0,0,0-.12.39,5.93,5.93,0,0,1-.33,2.81,2.21,2.21,0,0,1-2,1.45c-.46,0-.92,0-1.4,0l.2-1.52-4.46,1.07.25-1.77c1-.24,2-.42,3-.73s1.84-.71,2.74-1.08c.3-.12.36-.32.07-.56a15.27,15.27,0,0,1-5.34,1.45,6.9,6.9,0,0,1,.19-1.38c.06-.17.43-.29.67-.32a12.67,12.67,0,0,0,3.88-1l.19-.12c-.12-.36-.31-.34-.64-.26-1.17.28-2.36.5-3.66.77.06-.6.09-1,.17-1.46,0-.08.23-.16.36-.19l4-.89c.06,0,.1-.08.25-.19H86.12l.24-1.55h6.84L93,14.45l-3.27,1.44c.34.68.35.7,1,.39C92,15.71,93.2,15.11,94.47,14.5Zm-7.18,6.63c1.12.08,1.35-.06,1.39-.71Z"/><path class="cls-1" d="M81.72,10.77c.13.51.28,1,.36,1.5a.83.83,0,0,1-.22.5,26.86,26.86,0,0,1-7.38,6.91,1.14,1.14,0,0,0-.13.12c.48,1,1.43,1.1,2.36,1.14a14.1,14.1,0,0,0,4.78-.71c-.1.69-.18,1.33-.29,2a.45.45,0,0,1-.27.31,17.19,17.19,0,0,1-6.27,0c-1.14-.25-1.55-.66-2.23-2l-1.08.74-1.12.8c-.19-.7-.39-1.37-.54-2a.53.53,0,0,1,.21-.41c.74-.55,1.5-1.06,2.24-1.6.45-.33.67,0,.91.32a20.86,20.86,0,0,0,6.44-5.75H71.39l.25-1.79h4.18l-.47-1a20.13,20.13,0,0,1,2,0c.17,0,.37.35.45.58a.53.53,0,0,0,.6.37C79.53,10.76,80.61,10.77,81.72,10.77Z"/><path class="cls-1" d="M93.77,12.47c-2.48,0-4.88,0-7.29,0-.45,0-.63.15-.63.61a7,7,0,0,1-.15,1H83.9c.14-1,.26-2.08.43-3.1,0-.11.29-.26.45-.26,1.31,0,2.62,0,4,0l-.38-.93c.66,0,1.29,0,1.91,0,.18,0,.4.26.48.45a.67.67,0,0,0,.72.47c1.26,0,2.51,0,3.77,0h.54l-.47,3.36H93.56Z"/></svg>