<svg xmlns="http://www.w3.org/2000/svg" viewBox="0 0 96 31.84"><defs><style>.cls-1{fill:#97a2ac;}</style></defs><path class="cls-1" d="M20.62,31.83V1.29c.09,0,.16-.13.23-.13,4,0,7.94-.31,11.87.53C39.58,3.15,43.44,7.58,44,14.58a19.45,19.45,0,0,1-1.09,8.7c-1.74,4.46-5.24,6.78-9.72,7.87a32.92,32.92,0,0,1-8.18.69C23.57,31.82,22.14,31.83,20.62,31.83Zm4.09-27V28.11c3,.05,5.88.1,8.69-.9a9,9,0,0,0,6-6.61,16.66,16.66,0,0,0,0-8.14,9.09,9.09,0,0,0-6.79-7A26.6,26.6,0,0,0,24.72,4.86Z"/><path class="cls-1" d="M3.33,31.82V28.2c1.07-.12,2.13-.23,3.19-.36a6.8,6.8,0,0,0,.94-.2c3.07-.83,4.4-2.43,4.56-5.61.08-1.63.07-3.27.07-4.91q0-7.45,0-14.9v-1h4.23c0,.27,0,.54,0,.82,0,6.37,0,12.73,0,19.1a16.26,16.26,0,0,1-.44,3.55,8.14,8.14,0,0,1-5.25,6A19.11,19.11,0,0,1,3.33,31.82Z"/><path class="cls-1" d="M77.16,19.18c1.48-.42,2.29.08,2.91,1.44,1,2.14,2.18,4.18,3.37,6.41l.83-1.55c.92-1.72,1.92-3.41,2.73-5.19a1.78,1.78,0,0,1,2.15-1.22c.19,0,.39,0,.63,0V31.21h-2V23.84l-.24-.08L83.44,31.2l-4.09-7.37-.2.05v7.34h-2Z"/><path class="cls-1" d="M89.17,6.58V8h-7c0,1.39,0,2.66,0,3.94,0,2.41-1.6,3.76-4.12,3.5V14.3c1.5-.49,1.64-.68,1.65-2.23,0-1.31,0-2.62,0-4.06H72.28l2.55-5.52H71.71V1.09c1,0,2,0,3,0,.51,0,.89-.06,1.1-.62A.87.87,0,0,1,76.43,0c.63-.06,1.27,0,2,0L78.07,1.1H89.8V2.44h-1c-3.5,0-7,0-10.51,0a1.13,1.13,0,0,0-1.25.8c-.44,1.1-1,2.16-1.51,3.33h4.16V3.65h2.52V6.58Z"/><path class="cls-1" d="M62.18,25.14a6.66,6.66,0,1,1,6.57,6.69A6.63,6.63,0,0,1,62.18,25.14Zm6.63-4.48a4.52,4.52,0,1,0,4.55,4.49A4.57,4.57,0,0,0,68.81,20.66Z"/><path class="cls-1" d="M61.07,7.95c0,1.26,0,2.39,0,3.53,0,2.77-1.23,4-4.1,4V14.28c1.42-.42,1.59-.64,1.6-2.17,0-1.34,0-2.68,0-4.12H51.4V3.52H68.25V7.95Zm4.77-3h-12V6.54h12Z"/><path class="cls-1" d="M62,20.5,60.61,22a4.73,4.73,0,0,0-4.22-1.17,4.52,4.52,0,0,0-2.64,1.76,4.45,4.45,0,0,0,.5,5.83c1.74,1.72,4,1.75,6.36,0l1.33,1.54c-2,2.44-6.39,2.56-9,.18a6.65,6.65,0,0,1-.21-9.69A6.54,6.54,0,0,1,62,20.5Z"/><path class="cls-1" d="M50.79,2.36V1.11h7.7l.16-1H61l.1,1h7.71V2.36Z"/><path class="cls-1" d="M68.57,15.42a1.71,1.71,0,0,1-1.75-.61A13.87,13.87,0,0,1,63.66,9h2.44Z"/><path class="cls-1" d="M76.95,9a12.66,12.66,0,0,1-3.57,6.15c-.34.3-1,.29-1.42.42.7-1.82,1.43-3.47,2-5.17C74.36,9,74.27,9,75.77,9Z"/><path class="cls-1" d="M53.56,9h2.59c-.6,1.31-1.08,2.51-1.71,3.63a20.34,20.34,0,0,1-1.62,2.16,1.51,1.51,0,0,1-1.73.6Z"/><path class="cls-1" d="M89.71,15.33a1.72,1.72,0,0,1-2-.54A14,14,0,0,1,84.55,9c.85,0,1.59,0,2.33,0a.63.63,0,0,1,.45.4A16,16,0,0,0,89.71,15.33Z"/><path class="cls-1" d="M48.13,28.22a1.64,1.64,0,0,1-3.28,0,1.64,1.64,0,0,1,3.28,0Z"/></svg>