<svg xmlns="http://www.w3.org/2000/svg" viewBox="0 0 96 31.84"><defs><style>.cls-1{fill:#97a2ac;}</style></defs><path class="cls-1" d="M6.86,22.32,2.75,14.66c-.39,2.39-.19,6.84.35,7.57H0a14.21,14.21,0,0,0,.22-1.75c0-2.75,0-5.5,0-8.25A9.88,9.88,0,0,0,0,10.85H4c0,.32-.18.69-.07.93,1,2,2,3.9,3.14,6,1.15-2.14,2.22-4.09,3.25-6.06.12-.23,0-.58,0-.91h4c-.56,1.16-.48,10.52.13,11.4H11.12c.07-.71.18-1.45.19-2.2a39.54,39.54,0,0,0-.19-5.21Z"/><path class="cls-1" d="M62.11,12l-1.35,2.63c-1.21-1.93-4.53-2.35-6-1.64-.43.21-.67.81-1,1.23.4.29.76.76,1.2.84,1.41.28,2.86.35,4.26.64a3.31,3.31,0,0,1,3,3.19,3.51,3.51,0,0,1-2.68,3.45A9.57,9.57,0,0,1,52.82,22c-.57-.23-1.16-.4-1.86-.64l1.22-2.76c.91,2,4.73,2.58,6.4,1.81.61-.28,1.22-.74,1-1.44a1.91,1.91,0,0,0-1.29-.85c-1.14-.23-2.32-.31-3.48-.44-2.06-.24-3.34-1.37-3.43-3a3.63,3.63,0,0,1,3.15-3.8,9.83,9.83,0,0,1,6,.67A16.69,16.69,0,0,0,62.11,12Z"/><path class="cls-1" d="M74.7,22.25c.06-3.17.07-6.33,0-9.54h2.68c.11.36.1.81.32,1,1.72,1.59,3.49,3.14,5.08,4.55,0-1.53.09-3.54-.06-5.58h2.35c-.47,1.13-.43,8.66.07,9.57h-2.8c0-.27,0-.68-.16-.84-1.86-1.72-3.75-3.4-5.45-4.93a45.91,45.91,0,0,0,.14,5.76Z"/><path class="cls-1" d="M28.15,22.31c.46-1,.46-8.65,0-9.63,2.19,0,4.37-.09,6.54,0a4.1,4.1,0,0,1,3.95,4.06c.24,3.71-1.45,5.53-5.15,5.54Zm2.52-8.12v6.48c1.16,0,2.26.05,3.35,0a2.07,2.07,0,0,0,2.11-1.43,8.42,8.42,0,0,0,0-3.41,2.31,2.31,0,0,0-1.55-1.33A26.8,26.8,0,0,0,30.68,14.19Z"/><path class="cls-1" d="M86.63,21.62l1-2.28a4.66,4.66,0,0,0,5.14,1.53c.46-.19.73-.81,1.09-1.24a4.66,4.66,0,0,0-1.26-.74c-1-.22-2.06-.26-3.08-.42A2.7,2.7,0,0,1,87,16.16,2.85,2.85,0,0,1,89,13a7.36,7.36,0,0,1,5.11.21c.58.22,1.18.39,1.84.61l-1.06,2.09a4.6,4.6,0,0,0-4.74-1.4c-.45.1-.8.67-1.19,1,.39.29.74.73,1.17.83a23.08,23.08,0,0,0,2.69.35c2,.24,3.15,1.28,3.18,2.85a3.17,3.17,0,0,1-3.17,3.14,8.85,8.85,0,0,1-5-.67A8.81,8.81,0,0,0,86.63,21.62Z"/><path class="cls-1" d="M42.73,14.42v1.91h4.54v1.9H42.76V20.7c2.2,0,4.39.07,6.65-.05v1.87c-.62-.07-1.28-.2-1.93-.2-2.41,0-4.82,0-7.1,0V12.5h9.05v1.92Z"/><path class="cls-1" d="M72.83,12.6v1.89c-2.18-.52-4.38-.09-6.63-.27v2.1h4.52V18.4c-1.49-.62-3-.19-4.54-.32v2.47h6.64v2a10.22,10.22,0,0,0-1.42-.21c-2.58,0-5.15,0-7.75,0,.5-1.13.48-8.67,0-9.64C66.68,12.61,69.73,12.72,72.83,12.6Z"/><path class="cls-1" d="M21.3,22.31c-2.16-.06-3.94-.74-4.91-2.76a4.63,4.63,0,0,1,.48-5c1.62-2.21,5.68-2.59,8-.77a4.81,4.81,0,0,1,.67,6.74A5.23,5.23,0,0,1,21.3,22.31ZM18,17.49a3.14,3.14,0,0,0,3.26,3.21,3.21,3.21,0,0,0,3.24-3.26,3.15,3.15,0,0,0-3.29-3.18A3.09,3.09,0,0,0,18,17.49Z"/></svg>