<svg xmlns="http://www.w3.org/2000/svg" viewBox="0 0 96 31.84"><defs><style>.cls-1{fill:#97a2ac;}</style></defs><path class="cls-1" d="M66,26.08a9.53,9.53,0,0,1-5.63,4c-5,1.28-10.5-.95-11.86-6.5a9.16,9.16,0,0,1,7.07-11.07c3.71-.68,8.07.19,10.53,3.67l2.09-1.81C72.1,11,79.48,11.81,82.4,15.9c3.79,5.3.42,13.29-6,14.32-3.51.56-6.67,0-9.24-2.69-.21-.22-.38-.47-.56-.71Zm-1.25-4.36.27-.07a29.77,29.77,0,0,0-1.23-4.51,6.32,6.32,0,0,0-6.26-3.86c-2.81,0-5.09,1.21-6.09,4A9.92,9.92,0,0,0,52,25.61c2.29,4.24,8.07,5.07,11.08,1.6A7.68,7.68,0,0,0,64.72,21.72Zm16.74-.14A28.63,28.63,0,0,0,80.77,18a6.62,6.62,0,0,0-6.35-4.76c-2.53-.05-5,.71-6.24,3.62a9.49,9.49,0,0,0,1.17,9.84A6.63,6.63,0,0,0,76,29.25a5.76,5.76,0,0,0,4.91-4.42A29.51,29.51,0,0,0,81.45,21.58Z"/><path class="cls-1" d="M1.49,24.56c-.35,1.64-.1,2.35,1.24,3.13a8.45,8.45,0,0,0,7.49.74c3.43-1.27,4.27-5,1.61-7.54-1.78-1.68-3.84-3-5.74-4.6a19.26,19.26,0,0,1-2.3-2.18A6.2,6.2,0,0,1,2.43,7.5C3.35,5,5.41,4,7.86,3.44S12.57,3.5,15,4c-.32,1.78.37,3.66-.68,5.32C14.35,6.38,13,4.91,10,4.8A9.87,9.87,0,0,0,7,5,3.57,3.57,0,0,0,5.18,11a26.4,26.4,0,0,0,3.68,3.15c1.55,1.26,3.26,2.35,4.68,3.73a6.88,6.88,0,0,1,1.91,7.66,6.77,6.77,0,0,1-6.37,4.64,41.89,41.89,0,0,1-7.43-.43C.1,29.54,0,29.19,0,27.58.05,26.42-.19,25.08,1.49,24.56Z"/><path class="cls-1" d="M16.36,30.05C18,29.94,18,28.79,18,27.67c0-4.23.11-8.47.07-12.7,0-1.53-.31-1.66-2.14-1.93a16,16,0,0,1,4.55-.27c1.55,0,3.1,0,4.65,0h4.81l-.43,3.09L29,16c.34-1.62-.58-2-1.72-2.07-2.1-.06-4.21,0-6.37,0v6.46h8.65c-.24.94-1,1.19-1.86,1.19H20.89c0,2.24,0,4.42,0,6.59,0,.33.69.89,1.07.9,2.18.08,4.38.06,6.56,0,.81,0,1.06-.48,1.63-2.32A4.36,4.36,0,0,1,30,30c-.06.16-.45.27-.68.27q-6.29,0-12.59,0C16.6,30.21,16.48,30.11,16.36,30.05Z"/><path class="cls-1" d="M47.28,25.67c-.17,1-.34,2.07-.5,3.1-.23,1.55-1.5,1.3-2.53,1.47a14.46,14.46,0,0,1-7.15-.52,8.29,8.29,0,0,1-5.93-9.17,8.35,8.35,0,0,1,8.37-7.78c2.32,0,4.65.27,7,.46.24,0,.64.37.64.57,0,1.17-.1,2.34-.21,3.5,0,.21-.26.39-.48.69,0-2.44-.71-3.36-3-4-3.31-.86-7.33-.17-8.77,2.62-2.11,4.09-1,10.51,5,12.16A11.61,11.61,0,0,0,44,29c1.91-.22,2.56-1.76,2.84-3.48Z"/><path class="cls-1" d="M88.19,7.3h3.33c.38-1,0-1.33-.88-1.28a7.88,7.88,0,0,1-1.36-.16V5.54l2.37-.12-.13-1.91.28-.17,1.39,2.1,1.64.09,0,.29-2,.35V7.3h3.08l0,.4L93.59,8V9.11h2.35l.06.43-2.42.37v6.19l1.55.12a4.94,4.94,0,0,0-3.29,3.07l1.84.1.07.29L92,20.11v2.1l1.71.13c-.25.92-2.43-.23-1.62,1.73h2.65l0,.38-2.86.33c0,1.47,0,2.91,0,4.34A1.66,1.66,0,0,1,90.73,31V24.71c-.33,0-.66-.06-1-.06-1.51,0-1.53,0-1.59,1.46a1.57,1.57,0,0,1-1.21,1.64V14.89c1.46,2,3.46,1,5.35,1.29V9.86l-4.16-.22,0-.47H92.3L92.36,8l-4.21-.22Zm.39,15.39a3.11,3.11,0,0,0,.4-.93c0-1.51,0-3,0-4.52,0-.18-.25-.36-.38-.54-.15.18-.43.35-.43.53,0,2.25,0,4.5,0,6.81h2.61V22.87Zm1.55-5.93c0,.75,0,1.35,0,1.95,0,.18,0,.37.06.55a2.77,2.77,0,0,0,2-2.5Zm.37,5.57.31-.1c0-.62,0-1.25,0-1.87,0-.12-.33-.22-.51-.33a14.79,14.79,0,0,0-.13,1.64C90.15,21.89,90.37,22.11,90.5,22.33Z"/><path class="cls-1" d="M90.12,10.52a1.71,1.71,0,0,1,1.13,1.64,13.83,13.83,0,0,1,0,2.13c0,.32-.4.59-.61.89-.16-.29-.46-.57-.47-.87C90.09,13.05,90.12,11.79,90.12,10.52Z"/></svg>