<svg xmlns="http://www.w3.org/2000/svg" viewBox="0 0 96 31.84"><defs><style>.cls-1{fill:#97a2ac;}</style></defs><path class="cls-1" d="M28.41,10.9h.16a4.9,4.9,0,0,1,1.91.41,4.59,4.59,0,0,1,2,1.56,4.91,4.91,0,0,1,.67,1.25,5.83,5.83,0,0,1,.15,3.62,4.91,4.91,0,0,1-1.23,2.21A4.71,4.71,0,0,1,30.55,21a5.62,5.62,0,0,1-3.17.34,4.44,4.44,0,0,1-1.56-.55,4.78,4.78,0,0,1-1.59-1.47,5.3,5.3,0,0,1-.68-1.42,5.81,5.81,0,0,1-.23-1.69,5.76,5.76,0,0,1,.23-1.76,5,5,0,0,1,1.51-2.36,4.63,4.63,0,0,1,1.68-.93A4.29,4.29,0,0,1,28.41,10.9Zm.33,1.15a4,4,0,0,0-1.73.22,3.62,3.62,0,0,0-1.53,1.15,3.85,3.85,0,0,0-.61,1.16,4.62,4.62,0,0,0-.22,1.25,4.93,4.93,0,0,0,.45,2.45,3.6,3.6,0,0,0,1.63,1.65,3.51,3.51,0,0,0,1.24.34A3.74,3.74,0,0,0,29.85,20a3.65,3.65,0,0,0,2.09-2.28,8.17,8.17,0,0,0,.24-1.27,4.46,4.46,0,0,0-.27-2,5,5,0,0,0-.56-1,3.16,3.16,0,0,0-1.29-1.06A3,3,0,0,0,28.75,12.05Z"/><path class="cls-1" d="M11.35,16.15q0-2.4,0-4.79c0-.28,0-.3.31-.3h.69c.21,0,.25,0,.25.25q0,1.62,0,3.24c0,.2,0,.4,0,.61s.06.3.29.3h5.45c.26,0,.28,0,.28-.27q0-1.87,0-3.74s0-.07,0-.11c0-.27,0-.28.28-.28h.75c.22,0,.27,0,.27.26,0,.37,0,.74,0,1.1q0,4.28,0,8.55c0,.25,0,.28-.29.28h-.8c-.17,0-.22-.07-.21-.22q0-2,0-4.1c0-.07,0-.13,0-.2a.17.17,0,0,0-.2-.18H12.94c-.28,0-.33.06-.33.35q0,1.87,0,3.74c0,.14,0,.27,0,.41s-.06.19-.18.19h-.91c-.12,0-.16-.07-.17-.18s0-.51,0-.77q0-2.08,0-4.15Z"/><path class="cls-1" d="M89.29,16.17q0-2.33,0-4.67c0-.07,0-.13,0-.2s.05-.25.26-.25h6.24c.24,0,.27,0,.26.27s0,.39,0,.59,0,.29-.29.29h-4.9c-.27,0-.28,0-.28.28q0,1.32,0,2.64c0,.36,0,.36.36.36h4.69c.29,0,.3,0,.3.3s0,.4,0,.61-.06.23-.24.23H91c-.39,0-.38,0-.38.39q0,1.41,0,2.82c0,.26,0,.28.27.28h4.88c.31,0,.32,0,.32.32s0,.43,0,.64-.05.19-.19.19H89.59c-.27,0-.3,0-.3-.29q0-2.4,0-4.79Z"/><path class="cls-1" d="M3.89,10.9h.05a4.52,4.52,0,0,1,1.62.26,4.56,4.56,0,0,1,1.65.91c.27.23.28.26.06.54l-.44.53c-.07.09-.13.07-.22,0a9.22,9.22,0,0,0-.91-.64,3.51,3.51,0,0,0-1.79-.44,3,3,0,0,0-1.2.18,1.61,1.61,0,0,0-1.06,1.27,1.08,1.08,0,0,0,.51,1.08,3.36,3.36,0,0,0,1.08.48c.6.17,1.21.34,1.8.54a9.27,9.27,0,0,1,1.24.48,2.62,2.62,0,0,1,1.23,1.22,2.42,2.42,0,0,1,.22,1A2.74,2.74,0,0,1,6.14,21a5.39,5.39,0,0,1-3.06.4A4.72,4.72,0,0,1,1,20.64,10.33,10.33,0,0,1,0,19.89s0-.1,0-.14L.61,19c.08-.1.16-.16.29,0a4.14,4.14,0,0,0,1.59,1,4.28,4.28,0,0,0,2.45.15,1.85,1.85,0,0,0,1.18-.76,1.47,1.47,0,0,0-.31-2,4.49,4.49,0,0,0-1.39-.6l-1.34-.39c-.34-.1-.68-.21-1-.34A2.71,2.71,0,0,1,.62,15a2.27,2.27,0,0,1-.31-1.45,2.62,2.62,0,0,1,1-1.79A3.88,3.88,0,0,1,2.76,11,4.4,4.4,0,0,1,3.89,10.9Z"/><path class="cls-1" d="M51.31,10.9h.18a5.34,5.34,0,0,1,2.76.89c.17.12.32.26.48.39a.2.2,0,0,1,0,.31l-.51.62c-.09.11-.18.13-.29,0a3.43,3.43,0,0,0-1.43-.87,4.46,4.46,0,0,0-1.74-.18,1.94,1.94,0,0,0-1.39.63,1.23,1.23,0,0,0,.37,2,6.85,6.85,0,0,0,1.35.48c.65.18,1.31.38,1.95.6a3.42,3.42,0,0,1,1.42.91,2.35,2.35,0,0,1,.61,1.61,2.83,2.83,0,0,1-.5,1.75,2.87,2.87,0,0,1-1.1.9,4.43,4.43,0,0,1-1.85.43,6.57,6.57,0,0,1-1.91-.18,4.8,4.8,0,0,1-1.84-.93c-.15-.12-.29-.25-.42-.38a.18.18,0,0,1,0-.17c.21-.28.42-.55.65-.82,0,0,.12,0,.15,0a4.34,4.34,0,0,0,1.24.91,3.55,3.55,0,0,0,1.53.41,5.88,5.88,0,0,0,1.26-.07,1.75,1.75,0,0,0,1.4-1.08,1.36,1.36,0,0,0-.5-1.72,4.1,4.1,0,0,0-1.39-.6l-1.33-.39c-.34-.1-.68-.21-1-.34A2.68,2.68,0,0,1,48,14.92a2.22,2.22,0,0,1-.28-1.41,2.43,2.43,0,0,1,.52-1.32,3.4,3.4,0,0,1,2-1.19A4.89,4.89,0,0,1,51.31,10.9Z"/><path class="cls-1" d="M37.24,16.16q0-2.08,0-4.15c0-.22,0-.44,0-.66s0-.29.27-.29h3.58a4.37,4.37,0,0,1,1.68.27,2.79,2.79,0,0,1,1.5,1.39,3.35,3.35,0,0,1,.26,2.08,2.62,2.62,0,0,1-.63,1.31,3,3,0,0,1-1.95,1,28.29,28.29,0,0,1-3,.07h-.21c-.24,0-.28.05-.28.28q0,1.73,0,3.46c0,.3,0,.31-.31.31h-.69c-.23,0-.26,0-.26-.26q0-2.42,0-4.85Zm1.25-2h0q0,.85,0,1.69c0,.2,0,.24.24.24h2.64a1.93,1.93,0,0,0,1.07-.34,1.83,1.83,0,0,0,.81-1.61,1.83,1.83,0,0,0-1.81-1.89c-.91,0-1.82,0-2.72,0-.17,0-.22.08-.22.24C38.49,13,38.49,13.58,38.49,14.14Z"/><path class="cls-1" d="M77.22,11.1l-.43.66-1,1.46-2,2.94c-.15.22-.31.45-.46.68a.44.44,0,0,0-.05.22q0,.69,0,1.37c0,.86,0,1.71,0,2.57,0,.23,0,.27-.26.27h-.8c-.21,0-.23,0-.23-.23,0-1.21,0-2.42,0-3.63a1.58,1.58,0,0,0-.38-1l-.81-1.16-1.12-1.62-1-1.39-.66-1a.65.65,0,0,1-.05-.14.57.57,0,0,1,.16-.05h1.05a.31.31,0,0,1,.3.15l.83,1.22,1.44,2.13.65,1,.11.14c.07.08.12.07.18,0l1.66-2.48,1.31-1.92a.37.37,0,0,1,.32-.19h1Z"/><path class="cls-1" d="M61,16.74q0-2.13,0-4.26c0-.26,0-.28-.27-.28H58c-.28,0-.3,0-.3-.31s0-.38,0-.57,0-.27.28-.27h7.27c.26,0,.28,0,.28.28s0,.38,0,.57,0,.3-.29.3H62.57c-.26,0-.28,0-.28.28q0,4.18,0,8.35c0,.41,0,.41-.41.41h-.66c-.21,0-.23,0-.23-.24q0-2.14,0-4.27Z"/><path class="cls-1" d="M80.13,16.17q0-2.4,0-4.81c0-.28,0-.31.31-.31h.78c.13,0,.19.05.19.18,0,.28,0,.56,0,.84q0,3.87,0,7.75c0,.25,0,.28.27.28h4.19c.29,0,.33,0,.33.33s0,.42,0,.62-.07.2-.21.2H80.46c-.32,0-.34,0-.34-.34Q80.13,18.54,80.13,16.17Z"/></svg>