<svg xmlns="http://www.w3.org/2000/svg" viewBox="0 0 96 31.84"><defs><style>.cls-1{fill:#97a2ac;}</style></defs><path class="cls-1" d="M2.81,22.17c.37-2,.85-4.06,1.1-6.11.32-2.63.45-5.28.67-8h6.08c-1,7.06.21,14.46-4.36,20.91L2.81,22.9Z"/><path class="cls-1" d="M71.43,18.84H65.61V13.08h5.66V8H67.51V2.18l3.7-.2L71.54.1h5.54c-.22,1.88.94,2,2.44,2,4.11.11,6.48,2.54,6.66,6.65.06,1.32,0,2.65,0,3.85.28.19.37.31.47.32,5.19.71,6.51,2.22,6.51,7.48,0,2.13.07,4.25,0,6.38-.16,3.13-2.34,5-5.78,5s-5.49-1.54-5.82-4.88c1.45,0,2.88-.06,4.3,0,1.22.07,1.61-.42,1.55-1.59-.07-1.39,0-2.79,0-4.19s-.68-2.25-2.07-2.28c-2.6-.06-5.2,0-8,0v12.8H71.43ZM77.19,7.69c0,1.72-.06,2.93,0,4.12,0,.42.45,1.13.73,1.15.79.06,2.27-.08,2.3-.29a10.64,10.64,0,0,0-.12-4.23C80,8,78.39,8,77.19,7.69Z"/><path class="cls-1" d="M44.84,31.84a3.51,3.51,0,0,1,.07-.56c.9-1.71,1.41-4,2.83-4.95s3.63-.35,5.65-.44V8h-3.7V2.24H63.16V7.79L59.43,8V26c1.49,0,2.92,0,4.34,0,1,0,1.5.28,1.56,1.43.21,4.42.25,4.42-4.21,4.42H44.84Z"/><path class="cls-1" d="M11,26.95h3.84V.09h5.75c0,.42.08.77.08,1.12,0,8.38,0,16.76,0,25.15,0,3.5-1.84,5.47-5,5.44C12.77,31.77,11.15,30.17,11,26.95Z"/><path class="cls-1" d="M45.32,0,41.25,8.36l7.2-.5-5.36,11,3.79.27c-.76,1.5-1.45,2.89-2.18,4.25a1,1,0,0,1-.67.5,58.72,58.72,0,0,1-6.34-.22c-1.44-.17-1.81-1.36-1.29-2.63.71-1.74,1.54-3.42,2.32-5.13.27-.58.52-1.17.93-2.09-1.33,0-2.34.06-3.34,0-1.78-.14-2.65-1.24-1.94-2.84,1.54-3.49,3.26-6.9,5-10.31A1.57,1.57,0,0,1,40.5,0C42,0,43.51,0,45.32,0Z"/><path class="cls-1" d="M29,29c-4.45-6.5-3.14-13.86-4.29-20.87h5.87c.32,3.83.23,7.71,1.05,11.4S30.47,25.83,29,29Z"/><path class="cls-1" d="M44.26,26a4.43,4.43,0,0,1-.13.52l-2.86,5.22h-9L35.17,26Z"/><path class="cls-1" d="M87.39,8c0-1.31-.07-2.32,0-3.32A2.6,2.6,0,0,1,90.11,2a2.65,2.65,0,0,1,3,2.34,2.59,2.59,0,0,1-2,3.21A22.66,22.66,0,0,1,87.39,8Z"/></svg>